<?xml version="1.0" encoding="utf-8"?>
<!-- Generator: Adobe Illustrator 24.3.0, SVG Export Plug-In . SVG Version: 6.00 Build 0)  -->
<svg version="1.1" id="Layer_1" xmlns="http://www.w3.org/2000/svg" xmlns:xlink="http://www.w3.org/1999/xlink" x="0px" y="0px"
	 viewBox="0 0 1080 1080" style="enable-background:new 0 0 1080 1080;" xml:space="preserve">
<style type="text/css">
	.st0{fill:#14142E;}
	.st1{fill:#F15A26;}
</style>
<g>
	<path d="M697.61,738.52c-0.61-0.13-1.21-0.25-1.8-0.37c0.01-0.06,0.03-0.12,0.04-0.18c1.09,0.34,2.18,0.46,3.3,0.07
		C698.64,738.19,698.13,738.36,697.61,738.52z"/>
	<path d="M681.23,738.86c-0.29,0.37-0.65,0.75,0.08,1.1c-0.15,0.06-0.26,0.1-0.37,0.14c-0.05-0.35-0.12-0.71-0.13-1.06
		c0-0.1,0.16-0.2,0.24-0.3C681.12,738.78,681.18,738.82,681.23,738.86z"/>
	<ellipse cx="533.1" cy="739.05" rx="0.03" ry="2.08"/>
	<path d="M553.32,739.82c0.18,0.55,0.37,1.14,0.54,1.69C553.13,741.14,553.39,740.39,553.32,739.82z"/>
	<path d="M527.43,740.28c0-0.49,0-0.98,0-1.46c0.03,0,0.06,0,0.09,0c0,0.48,0,0.97,0,1.45
		C527.49,740.27,527.46,740.27,527.43,740.28z"/>
	<path d="M558.06,738.79c0,0.88,0,1.76,0,2.65c-0.01,0-0.03,0-0.04,0c0-0.89,0-1.78,0-2.67
		C558.03,738.77,558.05,738.78,558.06,738.79z"/>
	<g>
		<path class="st0" d="M369.43,741.23c-4.02,6.86-7.52,13.13-11.39,19.2c-0.73,1.14-3.11,2.32-4.35,2.04
			c-10.71-2.47-21.7-4.38-31.89-8.19c-17.23-6.43-24.48-19.73-25.55-36.86c-1.8-28.83,14.64-48.45,46.95-55.1
			c3.84-0.79,7.86-1.15,11.79-1.16c39.76-0.08,79.52-0.09,119.28,0c5.82,0.01,11.66,0.47,17.44,1.08
			c12.91,1.36,20.01-4.06,20.64-16.35c0.28-5.5,0.65-11.11-0.12-16.52c-1.31-9.11-8.11-14.16-17.74-14.46
			c-19.43-0.59-38.86-1.13-58.27-1.97c-32.18-1.39-64.35-3.09-96.53-4.4c-4.56-0.19-6.4-1.55-7.63-5.73
			c-27.75-94.04-55.67-188.04-83.54-282.05c-0.49-1.66-0.81-3.36-1.3-5.41c148.01,0,295.47,0,443.79,0
			c-0.74,2.36-1.26,4.4-2.02,6.36c-4.65,12.07-9.43,24.1-13.98,36.2c-1.03,2.75-1.82,5.74-1.89,8.64c-0.2,9.65,4.79,14.38,15,14.03
			c14.93-0.52,27.64-7.17,40.15-13.97c1.84-1,2.78-3.82,3.68-5.97c14.79-35.28,29.51-70.59,44.22-105.9
			c1.18-2.84,2.12-5.08,6.44-4.95c31.16,0.94,62.33,1.57,93.49,2.32c1.21,0.03,2.42,0.29,3.97,0.49c0,9.47,0,18.71,0,28.85
			c-2.23,0-4.44,0-6.65,0c-24.06,0-48.13,0.24-72.19-0.17c-6.16-0.1-8.48,1.96-10.49,7.14c-14.34,37.13-29.11,74.11-43.53,111.22
			c-1.49,3.83-3.48,5.47-7.78,6.12c-30.84,4.65-60.91,12.02-89.33,24.55c-46.03,20.3-80.88,50.88-98.28,97.16
			c-11.76,31.28-13.24,63.52-9.03,96.12c3.13,24.24,9.22,47.83,19.5,70.33c0.39,0.85,0.58,1.78,1.06,3.3c-2.4,0-4.21,0.03-6.03,0
			c-70.7-1.43-141.41-2.77-212.1-4.42c-11.14-0.26-14.34,7.57-18.25,14.43c-3.8,6.66-1.77,13.19,4.62,18.69
			c8.45,7.28,19.04,10.46,29.71,13.4C363.69,740,366.14,740.47,369.43,741.23z"/>
		<path class="st0" d="M657.83,436.96c26.78,7.24,51.48,13.89,76.15,20.63c3.75,1.02,4.91,3.29,1.52,5.92
			c-19.86,15.42-39.81,30.74-59.76,46.06c-0.25,0.19-0.79,0.05-2.5,0.11c-2-9.24-4.06-18.75-6.14-28.39
			c-14.65,5.86-27.04,13.32-38.6,22.57c-21.05,16.84-33.86,38.01-39.69,63.11c-3.73,16.07-3.35,32.25,0.79,48.26
			c3.91,15.16,7.15,30.46,15.94,44.12c11.12,17.27,26.13,30.52,44.39,40.67c3.75,2.09,7.68,3.91,11.59,5.74
			c4.85,2.27,10.17,12.1,8.36,16.87c-0.43,1.15-4.27,2.33-5.8,1.75c-18.99-7.14-36-17.3-50.36-31.12
			c-15.23-14.66-26.1-31.63-33.9-51.13c-6.82-17.04-10.77-34-10.2-52.02c0.67-21.27,7.14-41.08,16.11-60.57
			c9.96-21.64,27.89-36.38,46.16-50.79c6.85-5.4,15.86-8.52,24.23-11.93c5.17-2.11,7.99-3.95,6.01-9.95
			C660.12,450.78,659.36,444.33,657.83,436.96z"/>
		<g>
			<g>
				<g>
					<path class="st1" d="M679.16,531.88h60.33c33.38,0,45.66,17.38,45.66,34.81c0,15.21-7.95,25.08-16.92,29.37
						c9.09,3.51,20.7,13.16,20.7,30.66c0,22.84-18.03,40.72-47.34,40.72h-62.44V531.88z M736.12,584.9
						c13.05,0,18.52-6.03,18.52-14.98c0-9.62-7.37-14.22-17.97-14.22h-27.04v29.2H736.12z M709.62,643.6h25.37
						c15.66,0,22.12-6.41,22.12-18c0-10.34-6.69-16.87-21.78-16.87h-25.71V643.6z"/>
				</g>
			</g>
		</g>
		<g>
			<g>
				<path class="st0" d="M776.43,451.52c7.24,1.56,10.71,2.5,17.38,4.68c-1.83,5.12-2.75,7.69-4.58,12.81
					c10.13,3.32,14.82,5.38,23.5,10.11c2.81-4.7,4.21-7.06,7.02-11.76c5.71,3.12,8.42,4.81,13.56,8.42
					c-7.16,9.48-14.32,18.95-21.49,28.43c-3.89-2.73-5.94-4.01-10.25-6.37c3.11-5.21,4.66-7.81,7.77-13.02
					c-8.24-4.5-12.7-6.46-22.32-9.61c-2.03,5.67-3.04,8.51-5.07,14.18c-5.04-1.65-7.67-2.37-13.14-3.54
					C771.34,474.42,773.88,462.97,776.43,451.52z"/>
				<path class="st0" d="M834.15,513.31c-3.42,0.96-5.11,1.48-8.43,2.62c-3.16-3.18-4.84-4.7-8.42-7.57
					c12.75-5.66,25.8-9,39.42-11.73c5.01,5.61,7.29,8.57,11.41,14.7c-6.15,12.36-12.77,23.93-21.71,34.53
					c-1.92-4.19-3-6.24-5.38-10.22c1.95-2.9,2.89-4.39,4.68-7.45C841.66,521.91,839.34,518.91,834.15,513.31z M849.91,522.35
					c3.98-7.11,6.16-12.16,7.85-15.35c-0.02-0.03-0.03-0.04-0.06-0.07c-3.82,0.98-10.06,2.1-16.78,3.88
					C844.84,515.23,846.64,517.55,849.91,522.35z"/>
				<path class="st0" d="M865.77,557.55c-5.44,1.57-8.16,2.36-13.59,3.93c-1.16-4.1-1.84-6.12-3.4-10.1
					c11.13-4.41,22.26-8.82,33.4-13.23c3.44,8.53,6.12,17.98,7.68,27.04c2.49,13.61-2.02,21.32-7.55,21.55
					c-4.83,0.2-7.57-3.76-9.02-7.41c-0.39,2.51-1.95,6.7-8.39,7.03c-0.72,0.04-1.08,0.05-1.8,0.09c-2.4,0.12-5.08,0.32-6.76,1.03
					c-0.17-4.11-0.35-6.17-0.9-10.25c1.44-1.04,4.05-1.63,7.88-2.19c0.19-0.03,0.29-0.04,0.48-0.07c3.7-0.54,5.56-2.22,3.72-10.51
					C866.9,561.68,866.55,560.29,865.77,557.55z M872.03,555.74c1.08,3.82,1.55,5.75,2.34,9.64c1.27,6.25,3,8.43,5.81,8.03
					c2.75-0.39,3.98-3.64,2.77-9.6c-0.85-4.23-1.36-6.33-2.54-10.49C877.06,554.29,875.38,554.77,872.03,555.74z"/>
				<path class="st0" d="M860.32,640.05c5.59,2.31,11.89,5.09,15.57,6.91c0.07-0.16,0.1-0.24,0.16-0.4
					c-7.81-7.69-15.89-14.88-24.29-21.93c1.05-3.54,1.5-5.34,2.25-8.95c10.68-1.59,21.19-3.45,31.66-6.1
					c0.02-0.17,0.03-0.26,0.05-0.43c-4.25,0.02-11.51-0.64-17.62-1.4c-5.01-0.62-7.52-0.94-12.53-1.56c0.48-3.93,0.63-5.9,0.77-9.86
					c11.95,0.42,23.89,0.84,35.84,1.26c-0.3,8.56-0.75,12.84-2.26,21.28c-9.76,2.85-21.84,4.45-27.51,4.53
					c-0.01,0.03-0.01,0.05-0.02,0.08c7.85,4.8,15.41,11.99,21.31,18.93c-2.76,7.79-4.42,11.61-8.28,18.95
					c-10.59-5.6-21.17-11.2-31.76-16.79c1.97-3.74,2.85-5.65,4.44-9.55C853,637.03,855.44,638.03,860.32,640.05z"/>
				<path class="st0" d="M838.47,666.81c-1.51-3.16-2.31-4.71-4-7.73c2.62-3.47,3.84-5.27,6.07-8.96
					c7.67,11.13,13.79,23.29,18.23,36.05c-4.77,5.67-7.37,8.37-12.98,13.42c-13.5-3.97-26.35-8.5-38.66-15.44
					c4.18-2.63,6.17-4.05,9.91-7.08c3.26,1.43,4.92,2.1,8.29,3.34C831.13,675.37,833.75,672.63,838.47,666.81z M831.89,683.55
					c7.8,2.73,13.22,4.06,16.69,5.2c0.02-0.03,0.04-0.04,0.06-0.07c-1.58-3.57-3.7-9.46-6.57-15.7
					C838.3,677.43,836.26,679.55,831.89,683.55z"/>
				<path class="st0" d="M796.61,705.26c-2.32-5.09-3.48-7.63-5.8-12.71c4.48-1.84,6.62-2.87,10.72-5.11
					c6.06,10.2,12.12,20.41,18.17,30.61c-9.46,5.29-19.36,8.75-29.59,12.14c-8.8,2.83-24.23,3.46-27.01-4.3
					c-1.27-3.53,4.21-7.88,8.6-9.81c-3.12-0.03-8.55-1.01-9.47-7.27c-0.1-0.7-0.15-1.05-0.26-1.75c-0.34-2.33-0.81-4.93-1.84-6.48
					c5.24-0.69,7.77-1.15,12.66-2.29c1.38,1.26,2.31,3.72,3.31,7.4c0.05,0.19,0.08,0.28,0.13,0.46c0.97,3.55,3.32,5.16,12.7,1.99
					C792.08,707.07,793.61,706.49,796.61,705.26z M799.28,711.11c-4.17,1.72-6.33,2.5-10.78,3.91c-7.16,2.26-9.72,4.25-9.01,6.96
					c0.7,2.64,4.79,3.37,11.62,1.22c4.85-1.52,7.2-2.37,11.74-4.25C801.43,715.82,800.71,714.25,799.28,711.11z"/>
			</g>
		</g>
	</g>
	<circle class="st0" cx="433.48" cy="758.09" r="19.63"/>
	<circle class="st0" cx="500.25" cy="758.09" r="19.63"/>
</g>
</svg>
